<?xml version="1.0" encoding="UTF-8" standalone="no"?>
<!DOCTYPE svg PUBLIC "-//W3C//DTD SVG 1.1//EN"
 "http://www.w3.org/Graphics/SVG/1.1/DTD/svg11.dtd">
<!-- Generated by graphviz version 2.36.0 (20140111.2315)
 -->
<!-- Title: G Pages: 1 -->
<svg width="500pt" height="462pt"
 viewBox="0.00 0.00 500.00 462.00" xmlns="http://www.w3.org/2000/svg" xmlns:xlink="http://www.w3.org/1999/xlink">
<g id="graph0" class="graph" transform="scale(1 1) rotate(0) translate(4 458)">
<title>G</title>
<polygon fill="white" stroke="none" points="-4,4 -4,-458 496,-458 496,4 -4,4"/>
<g id="clust1" class="cluster"><title>cluster_Outputs</title>
<polygon fill="#ffec8b" stroke="#ffec8b" points="63,-371 63,-446 425,-446 425,-371 63,-371"/>
<text text-anchor="middle" x="244" y="-378.8" font-family="Times,serif" font-size="14.00">Outputs</text>
</g>
<g id="clust2" class="cluster"><title>cluster_Inputs</title>
<polygon fill="#ffec8b" stroke="#ffec8b" points="156,-8 156,-83 484,-83 484,-8 156,-8"/>
<text text-anchor="middle" x="320" y="-15.8" font-family="Times,serif" font-size="14.00">Inputs</text>
</g>
<!-- 140603073231184 -->
<g id="node1" class="node"><title>140603073231184</title>
<polygon fill="#b3cde3" stroke="black" points="417,-438 295,-438 295,-402 417,-402 417,-438"/>
<text text-anchor="middle" x="356" y="-416.3" font-family="Times,serif" font-size="14.00">VWAP: [length=5]</text>
</g>
<!-- 140603073231824 -->
<g id="node2" class="node"><title>140603073231824</title>
<polygon fill="#ccebc5" stroke="black" points="277,-438 71,-438 71,-402 277,-402 277,-438"/>
<text text-anchor="middle" x="174" y="-416.3" font-family="Times,serif" font-size="14.00">PercentileFilter: [min=0, max=20]</text>
</g>
<!-- 140603073231056 -->
<g id="node3" class="node"><title>140603073231056</title>
<polygon fill="#fbb4ae" stroke="black" points="304,-75 164,-75 164,-39 304,-39 304,-75"/>
<text text-anchor="middle" x="234" y="-53.3" font-family="Times,serif" font-size="14.00">USEquityPricing.close</text>
</g>
<!-- 140603073231056&#45;&gt;140603073231184 -->
<g id="edge6" class="edge"><title>140603073231056&#45;&gt;140603073231184</title>
<path fill="none" stroke="black" d="M304.244,-57C309.614,-57 313,-57 313,-57 313,-57 313,-391.999 313,-391.999"/>
<polygon fill="black" stroke="black" points="309.5,-391.999 313,-401.999 316.5,-391.999 309.5,-391.999"/>
</g>
<!-- 140603073231248 -->
<g id="node5" class="node"><title>140603073231248</title>
<polygon fill="#b3cde3" stroke="black" points="166.5,-147 -0.5,-147 -0.5,-111 166.5,-111 166.5,-147"/>
<text text-anchor="middle" x="83" y="-125.3" font-family="Times,serif" font-size="14.00">MaxDrawdown: [length=5]</text>
</g>
<!-- 140603073231056&#45;&gt;140603073231248 -->
<g id="edge5" class="edge"><title>140603073231056&#45;&gt;140603073231248</title>
<path fill="none" stroke="black" d="M177,-75.1686C177,-96.498 177,-129 177,-129 177,-129 175.958,-129 175.958,-129"/>
<polygon fill="black" stroke="black" points="176.581,-125.5 166.581,-129 176.581,-132.5 176.581,-125.5"/>
</g>
<!-- 140603073231376 -->
<g id="node7" class="node"><title>140603073231376</title>
<polygon fill="#b3cde3" stroke="black" points="295,-147 185,-147 185,-111 295,-111 295,-147"/>
<text text-anchor="middle" x="240" y="-125.3" font-family="Times,serif" font-size="14.00">RSI: [length=14]</text>
</g>
<!-- 140603073231056&#45;&gt;140603073231376 -->
<g id="edge7" class="edge"><title>140603073231056&#45;&gt;140603073231376</title>
<path fill="none" stroke="black" d="M240,-75.1686C240,-75.1686 240,-100.587 240,-100.587"/>
<polygon fill="black" stroke="black" points="236.5,-100.587 240,-110.587 243.5,-100.587 236.5,-100.587"/>
</g>
<!-- 140603073230800 -->
<g id="node4" class="node"><title>140603073230800</title>
<polygon fill="#fbb4ae" stroke="black" points="476,-75 322,-75 322,-39 476,-39 476,-75"/>
<text text-anchor="middle" x="399" y="-53.3" font-family="Times,serif" font-size="14.00">USEquityPricing.volume</text>
</g>
<!-- 140603073230800&#45;&gt;140603073231184 -->
<g id="edge3" class="edge"><title>140603073230800&#45;&gt;140603073231184</title>
<path fill="none" stroke="black" d="M369.5,-75.0012C369.5,-75.0012 369.5,-391.89 369.5,-391.89"/>
<polygon fill="black" stroke="black" points="366,-391.89 369.5,-401.89 373,-391.89 366,-391.89"/>
</g>
<!-- 140603073231312 -->
<g id="node6" class="node"><title>140603073231312</title>
<polygon fill="#b3cde3" stroke="black" points="169,-219 15,-219 15,-183 169,-183 169,-219"/>
<text text-anchor="middle" x="92" y="-197.3" font-family="Times,serif" font-size="14.00">Rank: [method=&#39;ordinal&#39;]</text>
</g>
<!-- 140603073231248&#45;&gt;140603073231312 -->
<g id="edge9" class="edge"><title>140603073231248&#45;&gt;140603073231312</title>
<path fill="none" stroke="black" d="M90.625,-147.169C90.625,-147.169 90.625,-172.587 90.625,-172.587"/>
<polygon fill="black" stroke="black" points="87.1251,-172.587 90.625,-182.587 94.1251,-172.587 87.1251,-172.587"/>
</g>
<!-- 140603073232144 -->
<g id="node10" class="node"><title>140603073232144</title>
<polygon fill="#b3cde3" stroke="black" points="247.5,-363 100.5,-363 100.5,-327 247.5,-327 247.5,-363"/>
<text text-anchor="middle" x="174" y="-341.3" font-family="Times,serif" font-size="14.00">Expr: &#39;(x_0 + x_1) / (2)&#39;</text>
</g>
<!-- 140603073231312&#45;&gt;140603073232144 -->
<g id="edge10" class="edge"><title>140603073231312&#45;&gt;140603073232144</title>
<path fill="none" stroke="black" d="M122.375,-219.238C122.375,-219.238 122.375,-316.91 122.375,-316.91"/>
<polygon fill="black" stroke="black" points="118.875,-316.91 122.375,-326.91 125.875,-316.91 118.875,-316.91"/>
</g>
<!-- 140603073231440 -->
<g id="node8" class="node"><title>140603073231440</title>
<polygon fill="#b3cde3" stroke="black" points="275,-219 195,-219 195,-183 275,-183 275,-219"/>
<text text-anchor="middle" x="235" y="-197.3" font-family="Times,serif" font-size="14.00">Expr: &#39;&#45;x_0&#39;</text>
</g>
<!-- 140603073231376&#45;&gt;140603073231440 -->
<g id="edge4" class="edge"><title>140603073231376&#45;&gt;140603073231440</title>
<path fill="none" stroke="black" d="M235,-147.169C235,-147.169 235,-172.587 235,-172.587"/>
<polygon fill="black" stroke="black" points="231.5,-172.587 235,-182.587 238.5,-172.587 231.5,-172.587"/>
</g>
<!-- 140603073231888 -->
<g id="node9" class="node"><title>140603073231888</title>
<polygon fill="#b3cde3" stroke="black" points="298,-291 144,-291 144,-255 298,-255 298,-291"/>
<text text-anchor="middle" x="221" y="-269.3" font-family="Times,serif" font-size="14.00">Rank: [method=&#39;ordinal&#39;]</text>
</g>
<!-- 140603073231440&#45;&gt;140603073231888 -->
<g id="edge2" class="edge"><title>140603073231440&#45;&gt;140603073231888</title>
<path fill="none" stroke="black" d="M235,-219.169C235,-219.169 235,-244.587 235,-244.587"/>
<polygon fill="black" stroke="black" points="231.5,-244.587 235,-254.587 238.5,-244.587 231.5,-244.587"/>
</g>
<!-- 140603073231888&#45;&gt;140603073232144 -->
<g id="edge1" class="edge"><title>140603073231888&#45;&gt;140603073232144</title>
<path fill="none" stroke="black" d="M195.625,-291.169C195.625,-291.169 195.625,-316.587 195.625,-316.587"/>
<polygon fill="black" stroke="black" points="192.125,-316.587 195.625,-326.587 199.125,-316.587 192.125,-316.587"/>
</g>
<!-- 140603073232144&#45;&gt;140603073231824 -->
<g id="edge8" class="edge"><title>140603073232144&#45;&gt;140603073231824</title>
<path fill="none" stroke="black" d="M174,-363.155C174,-363.155 174,-391.752 174,-391.752"/>
<polygon fill="black" stroke="black" points="170.5,-391.752 174,-401.752 177.5,-391.752 170.5,-391.752"/>
</g>
</g>
</svg>
